<?xml version="1.0" encoding="utf-8"?>
<!-- Svg Vector Icons : http://www.onlinewebfonts.com/icon -->
<!DOCTYPE svg PUBLIC "-//W3C//DTD SVG 1.1//EN" "http://www.w3.org/Graphics/SVG/1.1/DTD/svg11.dtd">
<svg version="1.1" xmlns="http://www.w3.org/2000/svg" xmlns:xlink="http://www.w3.org/1999/xlink" x="0px" y="0px" viewBox="0 0 1000 1000" enable-background="new 0 0 1000 1000" xml:space="preserve">
<metadata> Svg Vector Icons : http://www.onlinewebfonts.com/icon </metadata>
<g><g><g><path d="M990,504.7c0-70.6-89-121.9-211-152c41.8-108.1,49.1-201.7-4.9-241.7c-14.8-11-33-16.5-54.1-16.5c-63,0-150,50.6-239.6,134.6C389.8,139.4,302,85.2,239.3,85.2c-19.2,0-35.8,5-49.5,14.8c-42.4,30.4-48.7,99.3-18,199.1c6,19.6,13.6,40,22.1,60.9C86.1,390.7,10,439.4,10,504.7c0,64.3,73.9,112.6,179.2,143.4c-44.7,111.7-54,209.2,1.4,250.3c14.8,11,33,16.5,54.1,16.5c63,0,149.9-50.5,239.3-134.3C569.8,862.3,652,911,711.5,911c19.2,0,35.8-5,49.5-14.8c52.4-37.6,45.5-129.3,5.2-236.6C894.7,630.2,990,577.8,990,504.7z M720,134.7c12.3,0,22.5,2.9,30.2,8.6C782,167,778.5,242.8,739,343.9c-54.4-10.8-113.7-17.8-173.7-20.7c-18.9-23.1-37.9-44.8-56.9-65.1C595.5,176.8,673.4,134.7,720,134.7z M330.8,601.9c9.4,13.1,18.9,25.8,28.5,38.4c-41.7-4.6-80.1-11.2-114.6-19.2c12.3-26.5,26.5-54.2,43.1-82.9C301.4,559.4,315.6,580.7,330.8,601.9z M249.7,387.3c31.5-7.1,66.1-13,103.4-17.3c-6.4,8.2-12.7,16.4-19,24.9c-16,21.5-31.3,43.8-45.9,66.3C274,436.2,261.1,411.5,249.7,387.3z M311.1,499.7c16.7-26.4,35.1-53.5,55.4-80.8c14.1-19,28.2-36.8,42.3-54c29.2-2,59.5-3.1,91.2-3.1c15.5,0,30.6,0.3,45.4,0.8c14,17.6,28,35.8,41.9,55.3c23.6,33,44.5,65.3,63.2,96.7c-15.9,24.9-33.2,50.3-52.3,76c-14.6,19.7-29.3,38.2-43.9,56c-17.7,0.7-35.7,1.1-54.3,1.1c-29.7,0-58.1-1.1-85.6-2.8c-16.9-20.8-33.9-42.8-50.9-66.5C344.7,552.3,327.2,525.9,311.1,499.7z M630.5,614.5c14.7-19.8,28.8-40.2,42.3-60.9c14.5,26.5,27.1,52,37.9,76.4c-31.6,5.6-65.7,10.1-102,13.1C616,633.7,623.3,624.3,630.5,614.5z M620,394.4c-7.1-9.9-14.3-19.5-21.4-29c44.9,3.4,86.7,8.9,124.5,16.2c-13.5,30-29.7,61.6-49,94.5C657.1,448.3,639,420.9,620,394.4z M511.7,321.6c-3.9,0-7.8-0.1-11.7-0.1c-18.3,0-36.7,0.4-55.1,1.2c11.7-13,23.2-25,34.7-36.6C490.3,297.4,500.9,309.2,511.7,321.6z M213.3,132.6c6.7-4.8,15.5-7.2,26-7.2c45.9,0,124.3,45,212.3,131.9c-21.1,21.3-42.1,44.3-62.9,68.9c-54.3,4.6-107.2,12.5-155.4,23.7c-8.9-21.5-16.7-42.5-22.9-62.6C186.2,209,187.3,151.2,213.3,132.6z M50.2,504.7c0-38.4,59.8-79.3,160-107.5c15.4,33.4,33.5,67.7,54,102.4c-22.4,37.2-42.3,74.6-59,111.2C108,582.7,50.2,542.5,50.2,504.7z M244.7,874.7c-12.3,0-22.5-2.9-30.2-8.6c-32.6-24.2-28.1-103,14-207.6c51.1,12.1,107.6,20.5,165.7,25.2c20.3,24.4,40.8,47.3,61.3,68.4C368.7,832.9,291.1,874.7,244.7,874.7z M449.9,686.9c16.7,0.6,33.4,0.9,50,0.9c6.3,0,12.5,0,18.8-0.2c-11.6,12.8-23,24.7-34.4,36.2C473,712.3,461.5,699.9,449.9,686.9z M737.5,863.7c-34.2,24.5-121.8-14.1-224.5-111.4c20.4-20.6,40.7-42.8,60.8-66.5c52.4-2.9,104.2-8.9,152.5-17.8C764.6,767.9,768.1,841.7,737.5,863.7z M750.9,622c-15.1-34.9-33.3-70.9-53.7-106.8c25.4-41.7,48-83.9,66.2-124.8c116,28.1,186.4,72.7,186.4,114.4C949.8,547.9,874.3,594.1,750.9,622z"/><path d="M500,426.7c43.1,0,78,34.9,78,78c0,43.1-34.9,78-78,78c-43.1,0-78-34.9-78-78C421.9,461.6,456.9,426.7,500,426.7z"/></g></g><g></g><g></g><g></g><g></g><g></g><g></g><g></g><g></g><g></g><g></g><g></g><g></g><g></g><g></g><g></g></g>
</svg>