<svg width="300" height="100" viewBox="0 0 300 100" fill="none" xmlns="http://www.w3.org/2000/svg">
    <path d="M67.4124 54.496L72.5626 51.815V11.5068H68.6999L59.2272 24.08H58.2156L58.7674 10.0276H99.6932L100.245 24.08H99.1414L89.9446 11.5068H85.9899V51.7225L91.0482 54.4036V55.7903H67.4124V54.496Z" fill="white"/>
    <path d="M104.935 52.6456V7.99229L100.981 6.42064V5.5886L115.236 3H116.707V24.171L117.075 23.8012C120.202 21.0277 124.801 19.1787 129.307 19.1787C135.561 19.1787 138.32 22.6918 138.32 29.3482V52.6456L141.631 54.4946V55.8813H122.869V54.4946L126.272 52.6456V29.3482C126.272 25.7427 124.709 24.2635 121.674 24.2635C119.65 24.2635 117.995 24.9106 116.707 25.9276V52.8305L120.018 54.6795V55.9738H101.257V54.6795L104.935 52.6456Z" fill="white"/>
    <path d="M153.679 38.9637C154.047 46.3597 157.358 52.0916 165.175 52.0916C168.946 52.0916 171.613 50.3351 174.096 49.0408V50.52C172.165 53.201 167.198 56.9915 160.301 56.9915C148.253 56.9915 141.999 50.2426 141.999 38.5015C141.999 27.0377 148.713 19.9191 159.657 19.9191C169.957 19.9191 175.291 25.0963 175.291 38.6864V39.0562H153.679V38.9637ZM153.495 37.2996L164.163 36.6525C164.163 27.5 162.6 21.3983 159.473 21.3983C156.162 21.3983 153.495 28.4245 153.495 37.2996Z" fill="white"/>
    <path d="M0 73.6292C0 54.2147 12.7836 47.2809 27.0386 47.2809C33.1085 47.2809 38.8105 48.2979 42.0294 49.5922L42.3053 63.1823H40.9258L32.5567 50.0544C31.0852 49.4073 29.7977 49.2224 27.2225 49.2224C19.6812 49.2224 15.7265 58.0051 15.9105 72.4273C16.0944 89.7154 19.0374 97.5737 26.027 97.5737C27.8663 97.5737 29.2458 97.2963 30.1655 96.8341V78.3441L25.5671 75.6631V74.1839H47.8234V75.848L43.225 78.3441V96.5567C39.4543 98.0359 33.1085 99.4227 26.4868 99.4227C10.3004 99.5151 0 91.9342 0 73.6292Z" fill="white"/>
    <path d="M47.5473 64.5698V63.4604L62.5381 60.8718L64.1935 60.9643V90.5482C64.1935 94.1538 65.9409 95.1707 68.7919 95.1707C70.6313 95.1707 72.2867 94.4311 73.6662 92.8595V66.4188L69.6196 64.6622V63.4604L84.5185 60.7794L85.9899 60.8718V94.8009L90.0365 96.465V97.5744L75.3217 99.4234L73.8502 99.3309V94.8934H73.4823C70.7232 97.3895 66.9526 99.6083 62.2622 99.6083C55.0887 99.6083 51.8698 95.3556 51.8698 88.8841V66.4188L47.5473 64.5698Z" fill="white"/>
    <path d="M143.011 60.7794L144.206 60.8718V71.7809H144.574C146.138 63.7377 149.725 60.7794 153.955 60.7794C154.599 60.7794 155.427 60.8718 155.794 61.0567V72.3356C155.151 72.1507 153.863 72.0582 152.759 72.0582C149.357 72.0582 146.874 72.7054 144.666 73.7223V95.3556L148.069 97.2046V98.5914H128.756V97.2046L132.251 95.2632V65.7716L128.204 64.5698V63.5528L143.011 60.7794Z" fill="white"/>
    <path d="M180.442 61.7024V50.1462L176.396 48.667V47.7425L191.478 44.969L192.95 45.1539V94.707L197.088 96.1862V97.4805L182.189 99.5144L180.994 99.422V95.3542H180.626C178.419 97.573 175.476 99.5144 170.785 99.5144C162.692 99.5144 156.714 93.3203 156.714 80.5622C156.714 67.157 163.612 60.5006 174.004 60.5006C177.039 60.5006 179.338 61.0553 180.442 61.7024ZM180.442 93.4127V63.8288C179.522 63.1816 178.787 62.442 176.304 62.5345C172.257 62.7194 169.774 68.8211 169.774 79.7301C169.774 89.5298 171.521 94.9844 176.947 94.7995C178.511 94.707 179.706 94.1523 180.442 93.4127Z" fill="white"/>
    <path d="M213.55 60.7779L214.837 60.8704V95.2617L218.24 97.1107V98.4975H198.927V97.1107L202.422 95.1693V66.3249L198.283 64.6608V63.5514L213.55 60.7779ZM214.929 51.4405C214.929 55.046 211.894 57.8195 208.308 57.8195C204.629 57.8195 201.778 55.046 201.778 51.4405C201.778 47.8349 204.629 44.969 208.308 44.969C211.894 44.969 214.929 47.8349 214.929 51.4405Z" fill="white"/>
    <path d="M261.741 95.2643V65.9576L257.695 64.4785V63.0917L272.594 60.3182L274.065 60.4107V64.7558H274.433C277.652 61.8899 282.434 60.0409 287.124 60.0409C293.562 60.0409 296.505 63.0917 296.505 69.933V95.0794L300 97.0208V98.4075H280.687V97.0208L284.181 95.0794V70.765C284.181 66.9746 282.526 65.4954 279.491 65.4954C277.56 65.4954 275.904 65.9576 274.341 67.1595V95.3567L277.744 97.2982V98.6849H258.43V97.2982L261.741 95.2643Z" fill="white"/>
    <path d="M240.313 76.8656V71.9658C240.313 64.5698 238.749 62.1661 234.151 62.1661C233.599 62.1661 233.139 62.2585 232.587 62.2585L224.494 73.2601H223.391V63.0906C226.885 61.9812 231.208 60.7794 237.002 60.7794C246.934 60.7794 252.636 63.5528 252.636 71.8733V95.8179L256.223 96.7424V97.6669C254.844 98.4989 251.993 99.3309 248.958 99.3309C244.083 99.3309 241.692 97.7593 240.681 94.9858H240.313C238.197 97.8518 235.254 99.4234 230.656 99.4234C224.77 99.4234 220.723 95.7254 220.723 89.3464C220.723 83.1522 224.494 79.824 232.311 78.3448L240.313 76.8656ZM240.313 93.4142V78.6222L237.83 78.8071C233.967 79.1769 232.495 81.673 232.495 87.1276C232.495 93.1368 234.427 94.7085 237.186 94.7085C238.749 94.7085 239.577 94.2462 240.313 93.4142Z" fill="white"/>
    <path d="M110.729 76.8656V71.9658C110.729 64.5698 109.166 62.1661 104.567 62.1661C104.016 62.1661 103.556 62.2585 103.004 62.2585L94.9107 73.2601H93.8071V63.0906C97.3019 61.9812 101.624 60.7794 107.418 60.7794C117.351 60.7794 123.053 63.5528 123.053 71.8733V95.8179L126.64 96.7424V97.6669C125.26 98.4989 122.409 99.3309 119.374 99.3309C114.5 99.3309 112.109 97.7593 111.097 94.9858H110.729C108.614 97.8518 105.671 99.4234 101.073 99.4234C95.1866 99.4234 91.14 95.7254 91.14 89.3464C91.14 83.1522 94.9107 79.824 102.728 78.3448L110.729 76.8656ZM110.729 93.4142V78.6222L108.246 78.8071C104.383 79.1769 102.912 81.673 102.912 87.1276C102.912 93.1368 104.843 94.7085 107.602 94.7085C109.258 94.7085 110.085 94.2462 110.729 93.4142Z" fill="white"/>
</svg>
